<svg xmlns="http://www.w3.org/2000/svg" viewBox="0 0 23 23"><path d="M1 1h7v7h-7zM10 1h1v1h-1zM15 1h7v7h-7zM2 2v5h5v-5zM12 2h2v2h-1v-1h-1zM16 2v5h5v-5zM3 3h3v3h-3zM9 3h1v2h1v-1h1v4h-1v-2h-1v2h1v2h-1v-1h-1zM17 3h3v3h-3zM13 5h1v3h-1zM12 8h1v1h1v1h-2zM1 9h1v2h-1zM3 9h5v1h-3v1h-2zM15 9h5v1h2v1h-1v1h1v1h-1v1h1v1h-1v1h-1v-1h-1v1h-1v-1h-2v1h-1v-3h1v1h2v-3h-2v-1h-1zM8 10h1v3h-1v-1h-1v1h-1v-2h2zM14 10h1v3h-1v-1h-2v1h-1v-1h-1v-1h4zM2 11h1v2h-1zM19 11v1h1v-1zM16 12h1v1h-1zM4 13h2v1h-2zM7 13h1v1h-1zM13 13h1v1h-1zM19 13v1h1v-1zM9 14h1v1h-1zM11 14h2v1h1v1h-1v2h-2v-1h1v-1h-1zM1 15h7v7h-7zM2 16v5h5v-5zM9 16h1v4h-1zM14 16h1v1h1v1h-2zM17 16h1v2h1v1h-3v-1h1zM19 16h1v1h-1zM21 16h1v2h-2v-1h1zM3 17h3v3h-3zM11 19h5v1h-5zM10 20h1v1h2v1h-4v-1h1zM16 20h4v1h-2v1h-1v-1h-1zM15 21h1v1h-1zM20 21h1v1h-1z"/></svg>